<?xml version="1.0" encoding="UTF-8" standalone="no"?>
<svg
   viewBox="0 0 576 512"
   version="1.1"
   id="svg1"
   sodipodi:docname="filesystem.svg"
   xml:space="preserve"
   inkscape:version="1.3.2 (091e20ef0f, 2023-11-25, custom)"
   xmlns:inkscape="http://www.inkscape.org/namespaces/inkscape"
   xmlns:sodipodi="http://sodipodi.sourceforge.net/DTD/sodipodi-0.dtd"
   xmlns="http://www.w3.org/2000/svg"
   xmlns:svg="http://www.w3.org/2000/svg"><defs
     id="defs1" /><sodipodi:namedview
     id="namedview1"
     pagecolor="#505050"
     bordercolor="#ffffff"
     borderopacity="1"
     inkscape:showpageshadow="0"
     inkscape:pageopacity="0"
     inkscape:pagecheckerboard="1"
     inkscape:deskcolor="#d1d1d1"
     inkscape:zoom="0.65395518"
     inkscape:cx="256.89834"
     inkscape:cy="355.52895"
     inkscape:window-width="1896"
     inkscape:window-height="1121"
     inkscape:window-x="10"
     inkscape:window-y="65"
     inkscape:window-maximized="1"
     inkscape:current-layer="svg1" /><!--!Font Awesome Free 6.6.0 by @fontawesome - https://fontawesome.com License - https://fontawesome.com/license/free Copyright 2024 Fonticons, Inc.--><path
     d="M88.7 223.8L0 375.8 0 96C0 60.7 28.7 32 64 32l117.5 0c17 0 33.3 6.7 45.3 18.7l26.5 26.5c12 12 28.3 18.7 45.3 18.7L416 96c35.3 0 64 28.7 64 64l0 32-336 0c-22.8 0-43.8 12.1-55.3 31.8zm27.6 16.1C122.1 230 132.6 224 144 224l400 0c11.5 0 22 6.1 27.7 16.1s5.7 22.2-.1 32.1l-112 192C453.9 474 443.4 480 432 480L32 480c-11.5 0-22-6.1-27.7-16.1s-5.7-22.2 .1-32.1l112-192z"
     id="path1"
     style="fill:#faebd6;fill-opacity:1;stroke:#111427;stroke-opacity:1;stroke-width:50;stroke-dasharray:none"
     inkscape:export-filename="filesystem.png"
     inkscape:export-xdpi="165.64143"
     inkscape:export-ydpi="165.64143" /><path
     d="M88.7 223.8L0 375.8 0 96C0 60.7 28.7 32 64 32l117.5 0c17 0 33.3 6.7 45.3 18.7l26.5 26.5c12 12 28.3 18.7 45.3 18.7L416 96c35.3 0 64 28.7 64 64l0 32-336 0c-22.8 0-43.8 12.1-55.3 31.8zm27.6 16.1C122.1 230 132.6 224 144 224l400 0c11.5 0 22 6.1 27.7 16.1s5.7 22.2-.1 32.1l-112 192C453.9 474 443.4 480 432 480L32 480c-11.5 0-22-6.1-27.7-16.1s-5.7-22.2 .1-32.1l112-192z"
     id="path2"
     style="fill:#faebd6;fill-opacity:1;stroke:none;stroke-opacity:1;stroke-width:40;stroke-dasharray:none" /></svg>
